<svg preserveAspectRatio="none" overflow="visible" style="display: block;" width="16" height="16" viewBox="0 0 16 16" fill="none" xmlns="http://www.w3.org/2000/svg">
<g id="refresh" clip-path="url(#clip0_0_40)">
<path id="Vector" d="M13.0304 2.0966C11.9088 1.04686 10.5079 0.352459 8.99769 0.108094C7.23111 -0.177747 5.42256 0.169602 3.87603 1.09175C2.32949 2.01391 1.13927 3.45464 0.505423 5.17178C-0.128423 6.88892 -0.16725 8.77778 0.39547 10.5209C0.95819 12.2639 2.08815 13.755 3.59541 14.7433C5.10267 15.7316 6.89534 16.157 8.67209 15.948C10.4488 15.7389 12.1013 14.9082 13.3518 13.5954C14.4209 12.473 15.1405 11.0567 15.4293 9.52677C15.5108 9.09514 15.1919 8.70634 14.7639 8.66583C14.3355 8.62528 13.961 8.94962 13.8689 9.37947C13.6196 10.5432 13.0572 11.618 12.2386 12.4774C11.2382 13.5276 9.91622 14.1922 8.49483 14.3594C7.07343 14.5267 5.63929 14.1864 4.43348 13.3957C3.22767 12.605 2.32371 11.4122 1.87353 10.0177C1.42336 8.62329 1.45442 7.1122 1.96149 5.73849C2.46857 4.36477 3.42075 3.21219 4.65798 2.47446C5.8952 1.73674 7.34205 1.45886 8.75531 1.68754C9.91 1.87437 10.9848 2.39006 11.861 3.16846C11.9202 3.22108 11.9756 3.27584 12.0302 3.32652L10.0398 5.36396C9.89431 5.51292 9.85083 5.73685 9.92965 5.93138C10.0085 6.12591 10.1941 6.25273 10.4 6.25273H15.4909C15.7721 6.25273 16 6.0196 16 5.73202V0.520697C16 0.31005 15.8759 0.120153 15.6856 0.0395815C15.4953 -0.0409903 15.2763 0.00363654 15.1308 0.152646L13.1356 2.19502C13.1027 2.16362 13.0674 2.13117 13.0304 2.0966Z" fill="#25282F"/>
</g>
<defs>
<clipPath id="clip0_0_40">
<rect width="16" height="16" fill="white"/>
</clipPath>
</defs>
</svg>
